<svg width="185" height="19" viewBox="0 0 185 19" fill="none" xmlns="http://www.w3.org/2000/svg">
<path d="M6.70455 18H0.517045V0.545454H6.75568C8.51136 0.545454 10.0227 0.894886 11.2898 1.59375C12.5568 2.28693 13.5313 3.28409 14.2131 4.58523C14.9006 5.88636 15.2443 7.44318 15.2443 9.25568C15.2443 11.0739 14.9006 12.6364 14.2131 13.9432C13.5313 15.25 12.5511 16.2528 11.2727 16.9517C10 17.6506 8.47727 18 6.70455 18ZM4.20739 14.8381H6.55114C7.64205 14.8381 8.55966 14.6449 9.30398 14.2585C10.054 13.8665 10.6165 13.2614 10.9915 12.4432C11.3722 11.6193 11.5625 10.5568 11.5625 9.25568C11.5625 7.96591 11.3722 6.91193 10.9915 6.09375C10.6165 5.27557 10.0568 4.6733 9.3125 4.28693C8.56818 3.90057 7.65057 3.70739 6.55966 3.70739H4.20739V14.8381ZM20.7221 18H16.7676L22.7932 0.545454H27.5488L33.5659 18H29.6113L25.2392 4.53409H25.1028L20.7221 18ZM20.475 11.1392H29.8159V14.0199H20.475V11.1392ZM50.9862 0.545454V18H47.7987L40.2049 7.0142H40.0771V18H36.3867V0.545454H39.6254L47.1595 11.5227H47.3129V0.545454H50.9862ZM64.2239 5.56534C64.1557 4.87784 63.8631 4.34375 63.3461 3.96307C62.829 3.58239 62.1273 3.39204 61.241 3.39204C60.6387 3.39204 60.1302 3.47727 59.7154 3.64773C59.3006 3.8125 58.9824 4.04261 58.7609 4.33807C58.5449 4.63352 58.437 4.96875 58.437 5.34375C58.4256 5.65625 58.491 5.92898 58.633 6.16193C58.7807 6.39489 58.9824 6.59659 59.2381 6.76705C59.4938 6.93182 59.7893 7.0767 60.1245 7.2017C60.4597 7.32102 60.8177 7.4233 61.1984 7.50852L62.7665 7.88352C63.5279 8.05398 64.2268 8.28125 64.8631 8.56534C65.4995 8.84943 66.0506 9.19886 66.5165 9.61364C66.9824 10.0284 67.3432 10.517 67.5989 11.0795C67.8603 11.642 67.9938 12.2869 67.9995 13.0142C67.9938 14.0824 67.7211 15.0085 67.1813 15.7926C66.6472 16.571 65.8745 17.1761 64.8631 17.608C63.8574 18.0341 62.6444 18.2472 61.2239 18.2472C59.8148 18.2472 58.5876 18.0312 57.5421 17.5994C56.5023 17.1676 55.6898 16.5284 55.1046 15.6818C54.5251 14.8295 54.2211 13.7756 54.1927 12.5199H57.7637C57.8035 13.1051 57.9711 13.5937 58.2665 13.9858C58.5677 14.3722 58.9682 14.6648 59.4682 14.8636C59.9739 15.0568 60.5449 15.1534 61.1813 15.1534C61.8063 15.1534 62.3489 15.0625 62.8091 14.8807C63.2751 14.6989 63.6359 14.446 63.8915 14.1222C64.1472 13.7983 64.2751 13.4261 64.2751 13.0057C64.2751 12.6136 64.1586 12.2841 63.9256 12.017C63.6984 11.75 63.3631 11.5227 62.9199 11.3352C62.4824 11.1477 61.9455 10.9773 61.3091 10.8239L59.4086 10.3466C57.937 9.98864 56.7751 9.42898 55.9228 8.66761C55.0705 7.90625 54.6472 6.88068 54.6529 5.59091C54.6472 4.53409 54.9285 3.6108 55.4966 2.82102C56.0705 2.03125 56.8574 1.41477 57.8574 0.971591C58.8574 0.528409 59.9938 0.306818 61.2665 0.306818C62.562 0.306818 63.6927 0.528409 64.6586 0.971591C65.6302 1.41477 66.3859 2.03125 66.9256 2.82102C67.4654 3.6108 67.7438 4.52557 67.7609 5.56534H64.2239ZM77.4764 18V0.545454H89.0332V3.58807H81.1668V7.74716H88.2662V10.7898H81.1668V18H77.4764ZM93.0643 18H89.1098L95.1353 0.545454H99.891L105.908 18H101.954L97.5814 4.53409H97.445L93.0643 18ZM92.8172 11.1392H102.158V14.0199H92.8172V11.1392ZM117.799 5.56534C117.731 4.87784 117.438 4.34375 116.921 3.96307C116.404 3.58239 115.703 3.39204 114.816 3.39204C114.214 3.39204 113.705 3.47727 113.291 3.64773C112.876 3.8125 112.558 4.04261 112.336 4.33807C112.12 4.63352 112.012 4.96875 112.012 5.34375C112.001 5.65625 112.066 5.92898 112.208 6.16193C112.356 6.39489 112.558 6.59659 112.813 6.76705C113.069 6.93182 113.365 7.0767 113.7 7.2017C114.035 7.32102 114.393 7.4233 114.774 7.50852L116.342 7.88352C117.103 8.05398 117.802 8.28125 118.438 8.56534C119.075 8.84943 119.626 9.19886 120.092 9.61364C120.558 10.0284 120.919 10.517 121.174 11.0795C121.436 11.642 121.569 12.2869 121.575 13.0142C121.569 14.0824 121.296 15.0085 120.757 15.7926C120.223 16.571 119.45 17.1761 118.438 17.608C117.433 18.0341 116.22 18.2472 114.799 18.2472C113.39 18.2472 112.163 18.0312 111.117 17.5994C110.078 17.1676 109.265 16.5284 108.68 15.6818C108.1 14.8295 107.796 13.7756 107.768 12.5199H111.339C111.379 13.1051 111.546 13.5937 111.842 13.9858C112.143 14.3722 112.544 14.6648 113.044 14.8636C113.549 15.0568 114.12 15.1534 114.757 15.1534C115.382 15.1534 115.924 15.0625 116.384 14.8807C116.85 14.6989 117.211 14.446 117.467 14.1222C117.723 13.7983 117.85 13.4261 117.85 13.0057C117.85 12.6136 117.734 12.2841 117.501 12.017C117.274 11.75 116.938 11.5227 116.495 11.3352C116.058 11.1477 115.521 10.9773 114.884 10.8239L112.984 10.3466C111.512 9.98864 110.35 9.42898 109.498 8.66761C108.646 7.90625 108.223 6.88068 108.228 5.59091C108.223 4.53409 108.504 3.6108 109.072 2.82102C109.646 2.03125 110.433 1.41477 111.433 0.971591C112.433 0.528409 113.569 0.306818 114.842 0.306818C116.137 0.306818 117.268 0.528409 118.234 0.971591C119.205 1.41477 119.961 2.03125 120.501 2.82102C121.041 3.6108 121.319 4.52557 121.336 5.56534H117.799ZM124.777 18V0.545454H128.467V7.74716H135.959V0.545454H139.641V18H135.959V10.7898H128.467V18H124.777ZM147.094 0.545454V18H143.403V0.545454H147.094ZM166.89 9.27273C166.89 11.1761 166.529 12.7955 165.807 14.1307C165.091 15.4659 164.114 16.4858 162.875 17.1903C161.642 17.8892 160.256 18.2386 158.716 18.2386C157.165 18.2386 155.773 17.8864 154.54 17.1818C153.307 16.4773 152.333 15.4574 151.617 14.1222C150.901 12.7869 150.543 11.1705 150.543 9.27273C150.543 7.36932 150.901 5.75 151.617 4.41477C152.333 3.07955 153.307 2.0625 154.54 1.36364C155.773 0.659091 157.165 0.306818 158.716 0.306818C160.256 0.306818 161.642 0.659091 162.875 1.36364C164.114 2.0625 165.091 3.07955 165.807 4.41477C166.529 5.75 166.89 7.36932 166.89 9.27273ZM163.148 9.27273C163.148 8.03977 162.963 7 162.594 6.15341C162.231 5.30682 161.716 4.66477 161.052 4.22727C160.387 3.78977 159.608 3.57102 158.716 3.57102C157.824 3.57102 157.046 3.78977 156.381 4.22727C155.716 4.66477 155.199 5.30682 154.83 6.15341C154.466 7 154.285 8.03977 154.285 9.27273C154.285 10.5057 154.466 11.5455 154.83 12.392C155.199 13.2386 155.716 13.8807 156.381 14.3182C157.046 14.7557 157.824 14.9744 158.716 14.9744C159.608 14.9744 160.387 14.7557 161.052 14.3182C161.716 13.8807 162.231 13.2386 162.594 12.392C162.963 11.5455 163.148 10.5057 163.148 9.27273ZM184.943 0.545454V18H181.755L174.161 7.0142H174.034V18H170.343V0.545454H173.582L181.116 11.5227H181.269V0.545454H184.943Z" fill="black"/>
</svg>
